<svg width="195" height="200" viewBox="0 0 195 200" fill="none" xmlns="http://www.w3.org/2000/svg">
    <rect width="194.667" height="200" rx="40" fill="white"/>
    <path d="M58.2488 156H42.0667C37.6484 156 34.0667 152.418 34.0667 148V78.0638C34.0667 75.9769 35.7584 74.2851 37.8454 74.2851H66.2488L94.9492 122.876L103.508 102.603C105.705 97.4008 112.454 96.0499 116.483 100.006L128.774 112.072V53C128.774 48.5817 132.356 45 136.774 45H157.65C159.476 45 160.956 46.4803 160.956 48.3064V148C160.956 152.418 157.374 156 152.956 156H136.774C132.356 156 128.774 152.418 128.774 148V122.876L122.415 137.609C120.175 142.802 113.401 144.093 109.407 140.09L98.8906 129.549L66.2488 96.0128V132.383V148C66.2488 152.418 62.6671 156 58.2488 156Z" fill="#333333"/>
</svg>
